<svg width="20" height="20" viewBox="0 0 20 20" fill="none" xmlns="http://www.w3.org/2000/svg">
<path d="M17.9609 19.0526C18.3588 19.0526 18.7403 18.8946 19.0216 18.6133C19.3029 18.332 19.4609 17.9504 19.4609 17.5526V14.0526C19.4609 13.6548 19.3029 13.2732 19.0216 12.9919C18.7403 12.7106 18.3588 12.5526 17.9609 12.5526C16.7909 12.5526 15.6409 12.3726 14.5409 12.0026C14.2779 11.9196 13.9972 11.9102 13.7293 11.9754C13.4613 12.0406 13.2164 12.178 13.0209 12.3726L11.5809 13.8126C9.09318 12.455 7.04852 10.4104 5.69094 7.9226L7.12094 6.4926C7.53094 6.1026 7.68094 5.5226 7.50094 4.9626C7.14094 3.8726 6.96094 2.7226 6.96094 1.5526C6.96094 1.15477 6.8029 0.773242 6.5216 0.491937C6.24029 0.210632 5.85876 0.052597 5.46094 0.052597H1.96094C1.56311 0.052597 1.18158 0.210632 0.900277 0.491937C0.618973 0.773242 0.460938 1.15477 0.460938 1.5526C0.460938 11.2026 8.31094 19.0526 17.9609 19.0526ZM1.96094 1.0526H5.46094C5.59355 1.0526 5.72072 1.10528 5.81449 1.19904C5.90826 1.29281 5.96094 1.41999 5.96094 1.5526C5.96094 2.8326 6.16094 4.0826 6.55094 5.2726C6.60094 5.4126 6.59094 5.6126 6.43094 5.7726L4.46094 7.7326C6.11094 10.9626 8.53094 13.3826 11.7709 15.0526L13.7209 13.0826C13.8609 12.9426 14.0509 12.9026 14.2309 12.9526C15.4309 13.3526 16.6809 13.5526 17.9609 13.5526C18.0935 13.5526 18.2207 13.6053 18.3145 13.699C18.4083 13.7928 18.4609 13.92 18.4609 14.0526V17.5526C18.4609 17.6852 18.4083 17.8124 18.3145 17.9062C18.2207 17.9999 18.0935 18.0526 17.9609 18.0526C8.86094 18.0526 1.46094 10.6526 1.46094 1.5526C1.46094 1.41999 1.51362 1.29281 1.60738 1.19904C1.70115 1.10528 1.82833 1.0526 1.96094 1.0526Z" fill="#043B64"/>
</svg>
