<svg width="17" height="17" viewBox="0 0 17 17" fill="none" xmlns="http://www.w3.org/2000/svg">
<path d="M16.4007 9.92004C16.4878 9.44066 16.5346 8.95062 16.5346 8.46058C16.5346 7.37398 16.322 6.31934 15.9033 5.32861C15.4995 4.36985 14.9194 3.50909 14.1819 2.76977C13.4506 2.03476 12.5837 1.44935 11.6294 1.04612C10.6391 0.626394 9.5892 0.413335 8.50531 0.413335C7.99525 0.413335 7.48306 0.462339 6.98575 0.558215C6.29762 0.192655 5.53087 0.00103588 4.7521 0C3.48332 0 2.28892 0.496428 1.39206 1.39554C0.949501 1.83693 0.598609 2.36189 0.359672 2.94007C0.120735 3.51825 -0.00150675 4.13817 1.40167e-05 4.76401C1.40167e-05 5.57363 0.20829 6.37047 0.597213 7.07357C0.518578 7.52951 0.476073 7.99611 0.476073 8.46058C0.476073 9.54719 0.688599 10.6018 1.10728 11.5926C1.51108 12.5513 2.08915 13.4121 2.82661 14.1514C3.56408 14.8907 4.42268 15.4702 5.37905 15.875C6.36942 16.2948 7.4193 16.5078 8.50319 16.5078C8.97499 16.5078 9.4468 16.4652 9.91011 16.3821C10.6221 16.7848 11.4254 17 12.2479 17C13.5167 17 14.7111 16.5057 15.6079 15.6045C16.5069 14.7054 17 13.508 17 12.236C17.0021 11.4264 16.7938 10.6274 16.4007 9.92004ZM8.53719 13.3908C5.68509 13.3908 4.40993 11.9846 4.40993 10.9321C4.40993 10.3909 4.80736 10.0138 5.35567 10.0138C6.57557 10.0138 6.26104 11.7715 8.53719 11.7715C9.70396 11.7715 10.3479 11.1366 10.3479 10.4868C10.3479 10.0969 10.1566 9.66224 9.3873 9.47262L6.84973 8.8377C4.80736 8.32423 4.43544 7.21632 4.43544 6.17659C4.43544 4.01617 6.46506 3.20441 8.37142 3.20441C10.1269 3.20441 12.1969 4.17809 12.1969 5.47349C12.1969 6.02958 11.7166 6.3513 11.1683 6.3513C10.1269 6.3513 10.3182 4.90675 8.22053 4.90675C7.17915 4.90675 6.6032 5.37975 6.6032 6.05514C6.6032 6.73054 7.42568 6.94573 8.13977 7.10979L10.0185 7.52738C12.0758 7.98759 12.5964 9.19138 12.5964 10.3249C12.5964 12.0783 11.2512 13.3908 8.53719 13.3908Z" fill="white"/>
</svg>
